<svg viewBox="0 0 1134 1024" xmlns="http://www.w3.org/2000/svg">
  <path d="M542.47179 1017.240227l-517.545127-304.189789a49.219598 49.219598 0 0 1 0-84.497163l517.545127-303.344817a49.536462 49.536462 0 0 1 49.853326 0l518.073234 302.81671a49.219598 49.219598 0 0 1 0 84.497163l-517.545127 304.189789a49.008355 49.008355 0 0 1-50.381433 0.528107z" fill="#00d0ff" opacity=".8"></path>
  <path d="M542.47179 698.791542l-517.545127-304.189789a49.219598 49.219598 0 0 1 0-85.02527l517.545127-302.81671a49.536462 49.536462 0 0 1 49.853326 0l518.073234 302.81671a49.219598 49.219598 0 0 1 0 85.02527l-517.545127 304.189789a49.008355 49.008355 0 0 1-50.381433 0z" fill="#032cdd" opacity=".7"></path>
</svg>
